<?xml version="1.0" encoding="utf-8"?>
<!-- Generator: Adobe Illustrator 15.0.0, SVG Export Plug-In  -->
<!DOCTYPE svg PUBLIC "-//W3C//DTD SVG 1.1//EN" "http://www.w3.org/Graphics/SVG/1.1/DTD/svg11.dtd" [
	<!ENTITY ns_flows "http://ns.adobe.com/Flows/1.0/">
]>
<svg version="1.1"
	 xmlns="http://www.w3.org/2000/svg" xmlns:xlink="http://www.w3.org/1999/xlink" xmlns:a="http://ns.adobe.com/AdobeSVGViewerExtensions/3.0/"
	 x="0px" y="0px" width="190px" height="190px" viewBox="-5.677 -1.096 190 190" enable-background="new -5.677 -1.096 190 190"
	 xml:space="preserve">
<defs>
</defs>
<path fill="#6DCFF6" d="M165.12,64.218h13.526C166.864,28.849,134.656,2.746,96.061,0v12.761
	C127.564,15.355,154.014,35.958,165.12,64.218"/>
<path fill="#6DCFF6" d="M13.529,64.218C24.635,35.957,51.084,15.354,82.592,12.76V0.001C43.99,2.747,11.784,28.849,0,64.218H13.529z
	"/>
<path fill="#6DCFF6" d="M165.12,123.59c-11.104,28.263-37.556,48.861-69.06,51.457v12.762c38.596-2.743,70.804-28.853,82.586-64.219
	H165.12z"/>
<path fill="#6DCFF6" d="M13.529,123.59H0c11.784,35.366,43.99,61.476,82.592,64.219v-12.762
	C51.084,172.451,24.635,151.85,13.529,123.59"/>
<path fill="#6DCFF6" d="M114.96,86.703l3.839-0.724c0.229-0.042,0.407-0.223,0.449-0.451c0.043-0.229-0.061-0.461-0.257-0.583
	l-11.493-7.096c-0.199-0.12-0.452-0.109-0.641,0.033c-0.184,0.143-0.264,0.381-0.198,0.605l3.748,12.976
	c0.063,0.225,0.26,0.386,0.491,0.406c0.016,0.002,0.033,0.002,0.051,0.002c0.214,0,0.41-0.121,0.505-0.314l2.276-4.626l0.102-0.018
	L114.96,86.703z M113.245,85.876c-0.172,0.033-0.325,0.146-0.399,0.305l-1.76,3.571l-2.938-10.172l9.01,5.559L113.245,85.876z"/>
<path fill="#6DCFF6" d="M114.573,139.189H65.126c-2.288,0-4.151-1.863-4.151-4.151c0-2.291,1.863-4.153,4.151-4.153
	c0.029,0,0.062,0.004,0.091,0.006c0.084,0.002,8.57,0.39,12.7-3.532c1.474-1.401,2.188-3.161,2.188-5.388
	c0-1.02,0.117-2.021,0.35-2.99c0.212-0.891,1.109-1.439,1.999-1.225c0.892,0.215,1.438,1.108,1.226,2
	c-0.174,0.722-0.259,1.446-0.259,2.215c0,3.144-1.088,5.768-3.229,7.8c-5.021,4.759-14.188,4.474-15.092,4.431
	c-0.449,0.02-0.809,0.387-0.809,0.84c0,0.461,0.374,0.838,0.836,0.838h49.447c0.461,0,0.836-0.377,0.836-0.838
	c0-0.445-0.349-0.813-0.786-0.84c-1.145,0.096-10.527,0.695-15.742-4.057c-2.275-2.076-3.432-4.825-3.432-8.174
	c0-0.78-0.077-1.517-0.233-2.254c-0.198-0.895,0.37-1.776,1.271-1.97c0.893-0.192,1.775,0.375,1.97,1.269
	c0.203,0.959,0.312,1.951,0.312,2.955c0,2.412,0.769,4.281,2.349,5.722c4.368,3.981,13.22,3.212,13.306,3.202
	c0.053-0.004,0.104-0.01,0.155-0.01c2.288,0,4.151,1.862,4.151,4.153C118.727,137.326,116.861,139.189,114.573,139.189"/>
<path fill="#6DCFF6" d="M132.844,121.023H95.801c-0.912,0-1.656-0.74-1.656-1.657c0-0.916,0.744-1.655,1.656-1.655h37.043
	c1.775,0,3.229-1.447,3.229-3.229V55.158c0-1.779-1.453-3.229-3.229-3.229H45.808c-1.78,0-3.229,1.448-3.229,3.229v59.321
	c0,1.78,1.448,3.229,3.229,3.229h41.579c0.914,0,1.655,0.739,1.655,1.655c0,0.917-0.741,1.657-1.655,1.657H45.808
	c-3.607,0-6.547-2.936-6.547-6.544v-59.32c0-3.606,2.938-6.543,6.547-6.543h87.036c3.607,0,6.543,2.937,6.543,6.543v59.321
	C139.387,118.09,136.452,121.023,132.844,121.023"/>
<path fill="#6DCFF6" d="M130.518,108.135H48.136c-0.916,0-1.658-0.741-1.658-1.655V57.124c0-0.916,0.742-1.66,1.658-1.66h82.381
	c0.914,0,1.655,0.744,1.655,1.66v49.355C132.172,107.394,131.432,108.135,130.518,108.135 M49.792,104.818h79.063V58.776H49.792
	V104.818z"/>
<path fill="#6DCFF6" d="M98.461,114.793H80.188c-0.914,0-1.659-0.742-1.659-1.66c0-0.914,0.745-1.655,1.659-1.655H98.46
	c0.915,0,1.659,0.741,1.659,1.655C100.12,114.049,99.376,114.793,98.461,114.793"/>
</svg>
