<?xml version="1.0" encoding="utf-8"?>
<!-- Generator: Adobe Illustrator 15.0.0, SVG Export Plug-In  -->
<!DOCTYPE svg PUBLIC "-//W3C//DTD SVG 1.1//EN" "http://www.w3.org/Graphics/SVG/1.1/DTD/svg11.dtd" [
	<!ENTITY ns_flows "http://ns.adobe.com/Flows/1.0/">
]>
<svg version="1.1"
	 xmlns="http://www.w3.org/2000/svg" xmlns:xlink="http://www.w3.org/1999/xlink" xmlns:a="http://ns.adobe.com/AdobeSVGViewerExtensions/3.0/"
	 x="0px" y="0px" width="190px" height="190px" viewBox="-5.677 -1.097 190 190" enable-background="new -5.677 -1.097 190 190"
	 xml:space="preserve">
<defs>
</defs>
<path fill="#6DCFF6" d="M165.121,64.218h13.525C166.864,28.85,134.656,2.747,96.059,0v12.761
	C127.564,15.355,154.014,35.957,165.121,64.218"/>
<path fill="#6DCFF6" d="M13.527,64.218c11.106-28.261,37.555-48.863,69.062-51.457V0C43.99,2.747,11.783,28.85,0,64.218H13.527z"/>
<path fill="#6DCFF6" d="M165.121,123.586c-11.106,28.265-37.557,48.865-69.062,51.459v12.762
	c38.597-2.743,70.805-28.85,82.587-64.221H165.121z"/>
<path fill="#6DCFF6" d="M13.527,123.586H0c11.783,35.371,43.99,61.478,82.589,64.221v-12.762
	C51.082,172.452,24.634,151.851,13.527,123.586"/>
<path fill="#6DCFF6" d="M110.512,85.785h-7.316c-0.506,0-0.915-0.41-0.915-0.916v-3.651c0-1.287-0.669-1.855-2.064-2.924
	c-0.688-0.534-1.478-1.134-2.22-1.957c-1.953-2.186-3.031-5-3.031-7.929c0-6.553,5.335-11.893,11.888-11.893
	c6.557,0,11.892,5.34,11.892,11.893c0,2.93-1.078,5.743-3.037,7.929c-0.744,0.821-1.523,1.422-2.219,1.957
	c-1.396,1.069-2.063,1.638-2.063,2.924v3.651C111.424,85.376,111.018,85.785,110.512,85.785 M104.109,83.957h5.49v-2.738
	c0-2.248,1.411-3.33,2.776-4.376c0.656-0.504,1.342-1.029,1.969-1.732c1.654-1.835,2.572-4.224,2.572-6.7
	c0-5.546-4.52-10.059-10.065-10.059c-5.552,0-10.064,4.513-10.064,10.059c0,2.478,0.915,4.865,2.574,6.7
	c0.623,0.703,1.31,1.229,1.97,1.732c1.365,1.047,2.776,2.128,2.776,4.376v2.738H104.109z"/>
<path fill="#6DCFF6" d="M103.196,91.275c-0.414,0-0.785-0.278-0.891-0.693c-0.122-0.492,0.173-0.987,0.663-1.11l7.319-1.827
	c0.491-0.116,0.983,0.173,1.108,0.664c0.126,0.489-0.18,0.988-0.663,1.108l-7.318,1.834
	C103.336,91.267,103.264,91.275,103.196,91.275"/>
<path fill="#6DCFF6" d="M86.55,60.538c-0.331-0.245-0.458-0.692-0.296-1.088c0.198-0.465,0.731-0.684,1.2-0.488l6.95,2.932
	c0.461,0.199,0.684,0.727,0.49,1.192c-0.194,0.468-0.739,0.685-1.201,0.49l-6.954-2.924C86.672,60.622,86.605,60.583,86.55,60.538"
	/>
<path fill="#6DCFF6" d="M127.202,60.538c0.329-0.245,0.462-0.692,0.297-1.088c-0.195-0.465-0.733-0.684-1.2-0.488l-6.949,2.932
	c-0.461,0.199-0.683,0.727-0.487,1.192c0.191,0.468,0.733,0.685,1.198,0.49l6.953-2.924
	C127.082,60.622,127.145,60.583,127.202,60.538"/>
<path fill="#6DCFF6" d="M96.875,48.111c-0.283-0.298-0.74-0.378-1.113-0.169c-0.44,0.248-0.598,0.807-0.35,1.247l3.703,6.572
	c0.251,0.436,0.803,0.595,1.244,0.348c0.44-0.246,0.591-0.809,0.347-1.247l-3.697-6.574C96.97,48.221,96.922,48.161,96.875,48.111"
	/>
<path fill="#6DCFF6" d="M116.14,48.111c0.284-0.298,0.744-0.378,1.117-0.169c0.44,0.248,0.596,0.807,0.348,1.247l-3.701,6.572
	c-0.253,0.436-0.803,0.595-1.246,0.348c-0.441-0.246-0.592-0.809-0.347-1.247l3.694-6.574
	C116.046,48.221,116.09,48.161,116.14,48.111"/>
<path fill="#6DCFF6" d="M103.196,94.936c-0.414,0-0.785-0.278-0.891-0.693c-0.122-0.492,0.173-0.987,0.663-1.11l7.319-1.831
	c0.491-0.123,0.983,0.177,1.108,0.667c0.126,0.489-0.18,0.988-0.663,1.109l-7.318,1.829
	C103.336,94.924,103.264,94.936,103.196,94.936"/>
<path fill="#6DCFF6" d="M108.678,71.153c-0.232,0-0.467-0.092-0.644-0.267l-3.011-3.01l-3.014,3.01
	c-0.357,0.356-0.938,0.356-1.294,0c-0.356-0.355-0.356-0.937,0-1.293l3.656-3.661c0.357-0.357,0.942-0.357,1.293,0l3.012,3.015
	l3.011-3.015c0.359-0.357,0.943-0.357,1.297,0c0.355,0.358,0.355,0.936,0,1.292l-3.657,3.661
	C109.152,71.06,108.915,71.153,108.678,71.153"/>
<path fill="#6DCFF6" d="M106.852,85.787c-0.507,0-0.912-0.411-0.912-0.916v-9.146c0-0.508,0.405-0.913,0.912-0.913
	c0.508,0,0.909,0.405,0.909,0.913v9.146C107.761,85.376,107.36,85.787,106.852,85.787"/>
<path fill="#6DCFF6" d="M110.253,102.135c-5.215,0.613-10.545-0.074-15.522-2.164c-1.069-0.447-1.355-1.456-1.01-2.196
	c0.351-0.756,1.033-1.139,2.22-0.746c6.994,2.741,14.59,2.843,21.524-0.043c6.931-2.891,12.323-8.308,15.182-15.252
	c2.861-6.946,2.847-14.589-0.047-21.522c-2.887-6.931-8.304-12.323-15.247-15.185c-12.025-4.954-25.768-1.083-33.416,9.412
	c-0.52,0.708-1.513,0.865-2.226,0.349c-0.707-0.52-0.867-1.516-0.347-2.225c8.519-11.682,23.814-15.99,37.198-10.478
	c7.731,3.183,13.762,9.187,16.978,16.904c3.216,7.717,3.233,16.225,0.05,23.956c-3.185,7.731-9.186,13.761-16.9,16.977
	C115.951,101.062,113.117,101.801,110.253,102.135"/>
<path fill="#6DCFF6" d="M67.775,148.1c-0.278,0-0.557-0.059-0.813-0.184l-25.196-11.988c-0.76-0.36-1.187-1.172-1.06-2
	c0.058-0.365,1.443-9.036,5.626-17.556c1.702-3.47,3.65-6.445,5.79-8.85c0.691-0.781,1.889-0.854,2.668-0.156
	c0.782,0.696,0.853,1.893,0.157,2.673c-1.913,2.145-3.67,4.838-5.219,8.003c-2.986,6.083-4.48,12.383-5.025,15.09l23.084,10.988
	l23.946-10.992c-0.99-4.455-4.644-18.273-12.937-25.277c-0.798-0.675-0.898-1.867-0.224-2.666c0.674-0.799,1.867-0.9,2.665-0.227
	c10.979,9.275,14.38,28.136,14.517,28.937c0.15,0.848-0.291,1.688-1.073,2.045l-26.118,11.988
	C68.313,148.045,68.043,148.1,67.775,148.1"/>
<path fill="#6DCFF6" d="M67.775,107.366c-7.937,0-14.113-8.771-16.49-16.92c-0.296-1.003,0.281-2.053,1.287-2.347
	c1.002-0.293,2.051,0.282,2.342,1.287c2.011,6.883,7.201,14.197,12.861,14.197c7.314,0,13.385-11.65,13.747-19.204
	c0.05-1.042,0.936-1.848,1.979-1.798c1.044,0.051,1.851,0.937,1.8,1.979C84.867,93.641,77.653,107.366,67.775,107.366"/>
<path fill="#6DCFF6" d="M49.916,92.176c-0.807,0-1.531-0.515-1.79-1.285c-0.599-1.771-1.24-4.821-1.24-8.077
	c0-11.79,9.591-21.382,21.376-21.382c11.152,0,20.517,8.716,21.312,19.843c0.021,0.34-0.044,0.681-0.196,0.985
	c-2.25,4.469-11.523,5.653-13.359,5.847c-0.625,0.059-1.231-0.18-1.638-0.655c-0.405-0.475-0.549-1.115-0.388-1.717
	c0.003-0.008,0.251-0.979,0.449-2.791c-6.18,4.938-17.75,8.903-24.432,9.23C49.98,92.176,49.946,92.176,49.916,92.176
	 M68.263,65.218c-9.701,0-17.588,7.894-17.588,17.596c0,2.037,0.293,3.99,0.639,5.45c6.381-0.773,16.424-4.468,21.336-8.752
	c1.083-0.946,1.837-1.863,2.171-2.661c0.354-0.824,1.232-1.292,2.106-1.116c0.879,0.173,1.517,0.934,1.526,1.827
	c0.021,1.31-0.01,2.604-0.088,3.851c-0.058,0.979-0.145,1.833-0.233,2.55c3.052-0.587,6.476-1.674,7.614-3.03
	C84.803,72.072,77.236,65.218,68.263,65.218"/>
</svg>
