<?xml version="1.0" encoding="utf-8"?>
<!-- Generator: Adobe Illustrator 15.0.0, SVG Export Plug-In  -->
<!DOCTYPE svg PUBLIC "-//W3C//DTD SVG 1.1//EN" "http://www.w3.org/Graphics/SVG/1.1/DTD/svg11.dtd" [
	<!ENTITY ns_flows "http://ns.adobe.com/Flows/1.0/">
]>
<svg version="1.1"
	 xmlns="http://www.w3.org/2000/svg" xmlns:xlink="http://www.w3.org/1999/xlink" xmlns:a="http://ns.adobe.com/AdobeSVGViewerExtensions/3.0/"
	 x="0px" y="0px" width="190px" height="190px" viewBox="-5.677 -1.097 190 190" enable-background="new -5.677 -1.097 190 190"
	 xml:space="preserve">
<defs>
</defs>
<path fill="#6DCFF6" d="M165.12,64.219h13.526C166.864,28.851,134.656,2.746,96.059,0v12.763
	C127.564,15.355,154.017,35.956,165.12,64.219"/>
<path fill="#6DCFF6" d="M13.53,64.219c11.104-28.263,37.555-48.863,69.06-51.456V0.001C43.993,2.747,11.786,28.851,0.001,64.22
	L13.53,64.219L13.53,64.219z"/>
<path fill="#6DCFF6" d="M165.12,123.587c-11.104,28.266-37.556,48.865-69.062,51.46v12.76c38.598-2.744,70.806-28.851,82.588-64.219
	L165.12,123.587L165.12,123.587z"/>
<path fill="#6DCFF6" d="M13.53,123.587H0c11.786,35.368,43.992,61.475,82.589,64.219v-12.761
	C51.085,172.452,24.634,151.853,13.53,123.587"/>
<path fill="#6DCFF6" d="M89.363,133.594c-19.172,0-26.049-8.307-26.331-8.658c-0.283-0.354-0.394-0.813-0.307-1.256
	c0.135-0.668,3.395-16.504,13.87-25.351c0.644-0.545,1.603-0.459,2.149,0.182c0.545,0.646,0.464,1.608-0.182,2.151
	c-8.411,7.104-11.894,19.649-12.67,22.857c1.764,1.67,8.579,7.02,23.47,7.02c14.958,0,21.125-5.396,22.623-6.996
	c-0.396-2.106-1.827-8.826-4.99-15.268c-1.125-2.287-3.265-4.663-5.152-6.761c-0.311-0.345-0.609-0.678-0.901-1.008
	c-0.562-0.629-0.505-1.594,0.125-2.153c0.631-0.561,1.595-0.502,2.155,0.127c0.287,0.323,0.586,0.653,0.888,0.991
	c2.023,2.244,4.315,4.789,5.627,7.46c4.005,8.162,5.333,16.467,5.386,16.813c0.063,0.386-0.027,0.781-0.253,1.102
	C114.623,125.204,108.599,133.594,89.363,133.594"/>
<path fill="#6DCFF6" d="M88.476,97.837c-7.492,0-13.331-8.33-15.589-16.072c-0.237-0.809,0.229-1.656,1.039-1.892
	c0.811-0.237,1.656,0.228,1.892,1.035c1.962,6.729,7.063,13.876,12.658,13.876c7.204,0,13.172-11.379,13.525-18.762
	c0.041-0.841,0.755-1.49,1.6-1.452c0.84,0.042,1.49,0.755,1.45,1.599C104.638,84.795,97.812,97.837,88.476,97.837"/>
<path fill="#6DCFF6" d="M71.286,83.218c-0.653,0-1.233-0.415-1.444-1.041c-0.567-1.686-1.172-4.588-1.172-7.676
	c0-11.186,9.096-20.287,20.278-20.287c10.585,0,19.463,8.268,20.219,18.827c0.018,0.273-0.034,0.546-0.158,0.792
	c-2.095,4.166-10.889,5.287-12.631,5.469c-0.502,0.048-0.994-0.147-1.318-0.528c-0.325-0.384-0.441-0.901-0.314-1.39
	c0.005-0.009,0.319-1.214,0.518-3.443c-5.74,4.925-17.307,8.954-23.897,9.274C71.337,83.218,71.309,83.218,71.286,83.218
	 M88.947,57.268c-9.499,0-17.228,7.731-17.228,17.233c0,2.096,0.325,4.115,0.688,5.568c6.179-0.684,16.122-4.312,20.956-8.523
	c1.077-0.941,1.829-1.865,2.17-2.671c0.284-0.66,0.991-1.037,1.696-0.899c0.71,0.142,1.224,0.757,1.231,1.479
	c0.017,1.247-0.01,2.484-0.085,3.678c-0.066,1.129-0.17,2.08-0.274,2.841c3.181-0.566,6.842-1.707,7.977-3.194
	C105.21,64.044,97.776,57.268,88.947,57.268"/>
<path fill="#6DCFF6" d="M76.575,100.944c-4.365,0-19.727-1.447-24.166-21.338c-0.184-0.824,0.333-1.64,1.156-1.822
	c0.828-0.183,1.637,0.334,1.824,1.156c4.562,20.443,21.32,18.997,22.033,18.923c0.836-0.071,1.587,0.525,1.672,1.363
	c0.088,0.836-0.519,1.583-1.354,1.673C77.713,100.903,77.29,100.944,76.575,100.944"/>
<path fill="#6DCFF6" d="M107.618,101.696c-3.292,0-5.755-0.676-5.954-0.732c-0.81-0.23-1.279-1.077-1.052-1.887
	c0.23-0.81,1.073-1.28,1.884-1.052c0.082,0.021,8.395,2.284,14.15-2.079c3.84-2.915,5.792-8.174,5.792-15.634
	c0-0.843,0.682-1.527,1.525-1.527c0.843,0,1.525,0.685,1.525,1.527c0,8.478-2.359,14.56-7.019,18.08
	C114.988,101.024,110.895,101.696,107.618,101.696"/>
<path fill="#6DCFF6" d="M124.765,80.661c-0.048,0-0.092,0-0.142-0.004c-1.892-0.175-3.441-1.057-4.481-2.56
	c-3.188-4.604-0.787-13.789-0.502-14.819c0.225-0.813,1.061-1.289,1.873-1.066c0.813,0.225,1.29,1.064,1.066,1.874
	c-0.664,2.427-1.946,9.359,0.072,12.274c0.531,0.764,1.247,1.164,2.249,1.256c0.838,0.076,1.454,0.816,1.382,1.657
	C126.21,80.065,125.546,80.661,124.765,80.661"/>
<path fill="#6DCFF6" d="M124.746,79.146c-0.094,0-0.188-0.009-0.286-0.028c-0.827-0.155-1.372-0.955-1.215-1.783l2.414-12.761
	c0.156-0.826,0.951-1.374,1.783-1.214c0.828,0.155,1.37,0.955,1.216,1.781l-2.415,12.762
	C126.104,78.633,125.461,79.146,124.746,79.146"/>
<path fill="#6DCFF6" d="M126.925,80.514c-0.583,0-1.141-0.336-1.394-0.904c-0.346-0.769,0.002-1.674,0.771-2.016
	c1.767-0.789,3.811-6.474,4.636-10.068c0.19-0.821,1.009-1.332,1.829-1.146c0.82,0.188,1.334,1.008,1.145,1.83
	c-0.397,1.735-2.582,10.483-6.365,12.169C127.344,80.468,127.133,80.514,126.925,80.514"/>
<path fill="#6DCFF6" d="M125.326,80.673c-0.161,0-0.329-0.028-0.489-0.083c-0.484-0.162-1.195-0.315-2.021-0.493
	c-3.401-0.731-8.542-1.838-10.082-6.44c-0.27-0.799,0.166-1.666,0.965-1.932c0.795-0.266,1.666,0.163,1.931,0.963
	c0.987,2.954,4.942,3.803,7.829,4.426c0.918,0.196,1.711,0.367,2.36,0.59c0.799,0.269,1.228,1.137,0.955,1.933
	C126.558,80.271,125.961,80.673,125.326,80.673"/>
<path fill="#6DCFF6" d="M52.751,79.993h-0.098c-0.843-0.011-1.518-0.704-1.506-1.547c0.013-0.842,0.706-1.531,1.546-1.506
	c1.036,0.025,1.76-0.308,2.368-1.013c2.313-2.688,1.754-9.72,1.347-12.203c-0.136-0.831,0.423-1.618,1.258-1.755
	c0.831-0.134,1.614,0.425,1.753,1.254c0.175,1.057,1.606,10.443-2.043,14.689C56.206,79.278,54.609,79.993,52.751,79.993"/>
<path fill="#6DCFF6" d="M52.85,78.485c-0.786,0-1.452-0.602-1.52-1.397l-1.076-12.944c-0.069-0.84,0.552-1.576,1.395-1.646
	c0.848-0.066,1.576,0.555,1.645,1.396l1.078,12.941c0.069,0.841-0.555,1.576-1.396,1.648C52.935,78.485,52.893,78.485,52.85,78.485"
	/>
<path fill="#6DCFF6" d="M50.538,79.62c-0.258,0-0.521-0.065-0.763-0.203c-3.588-2.074-4.848-10.998-5.065-12.769
	c-0.101-0.836,0.493-1.599,1.33-1.701c0.84-0.099,1.597,0.493,1.7,1.332c0.452,3.66,1.892,9.529,3.564,10.493
	c0.727,0.422,0.978,1.356,0.556,2.086C51.578,79.347,51.062,79.62,50.538,79.62"/>
<path fill="#6DCFF6" d="M52.11,79.944c-0.698,0-1.324-0.479-1.486-1.188c-0.188-0.822,0.33-1.639,1.15-1.825
	c0.671-0.153,1.475-0.238,2.406-0.34c2.938-0.319,6.961-0.753,8.25-3.588c0.346-0.767,1.25-1.105,2.019-0.758
	c0.77,0.349,1.105,1.253,0.757,2.021c-2.008,4.419-7.234,4.983-10.696,5.358c-0.835,0.092-1.561,0.17-2.063,0.28
	C52.338,79.934,52.225,79.944,52.11,79.944"/>
<rect x="27.959" y="42.679" fill="#6DCFF6" width="122.731" height="4.241"/>
<rect x="43.916" y="37.994" transform="matrix(-0.501 -0.8654 0.8654 -0.501 16.4287 126.4215)" fill="#6DCFF6" width="1.487" height="40.96"/>
<rect x="34.184" y="74.198" transform="matrix(-0.5004 -0.8658 0.8658 -0.5004 -19.7975 155.3774)" fill="#6DCFF6" width="1.489" height="18.405"/>
<rect x="37.864" y="82.945" transform="matrix(-0.5008 -0.8655 0.8655 -0.5008 -25.4888 178.0828)" fill="#6DCFF6" width="1.485" height="26.892"/>
<rect x="42.662" y="93.732" transform="matrix(-0.501 -0.8654 0.8654 -0.501 -32.3972 206.7533)" fill="#6DCFF6" width="1.487" height="37.969"/>
<rect x="139.889" y="47.793" transform="matrix(-0.4992 -0.8665 0.8665 -0.4992 161.8071 206.6995)" fill="#6DCFF6" width="1.487" height="17.601"/>
<rect x="139.898" y="67.224" transform="matrix(-0.5 -0.866 0.866 -0.5 145.1258 235.8363)" fill="#6DCFF6" width="1.486" height="17.603"/>
<rect x="130.252" y="78.03" transform="matrix(-0.4982 -0.8671 0.8671 -0.4982 112.356 258.5509)" fill="#6DCFF6" width="1.488" height="37.466"/>
<rect x="132.717" y="97.636" transform="matrix(-0.4999 -0.8661 0.8661 -0.4999 101.8971 285.8138)" fill="#6DCFF6" width="1.488" height="31.708"/>
<rect x="134.061" y="117.039" transform="matrix(-0.4998 -0.8661 0.8661 -0.4998 88.4006 313.783)" fill="#6DCFF6" width="1.485" height="28.654"/>
<rect x="111.893" y="45.423" transform="matrix(-0.4992 -0.8665 0.8665 -0.4992 121.8862 178.8927)" fill="#6DCFF6" width="1.487" height="17.604"/>
<rect x="42.674" y="108.924" transform="matrix(-0.5002 -0.8659 0.8659 -0.5002 -45.6261 229.4817)" fill="#6DCFF6" width="1.49" height="37.97"/>
<rect x="27.959" y="140.887" fill="#6DCFF6" width="122.731" height="4.241"/>
</svg>
