<?xml version="1.0" encoding="utf-8"?>
<!-- Generator: Adobe Illustrator 15.0.0, SVG Export Plug-In  -->
<!DOCTYPE svg PUBLIC "-//W3C//DTD SVG 1.1//EN" "http://www.w3.org/Graphics/SVG/1.1/DTD/svg11.dtd" [
	<!ENTITY ns_flows "http://ns.adobe.com/Flows/1.0/">
]>
<svg version="1.1"
	 xmlns="http://www.w3.org/2000/svg" xmlns:xlink="http://www.w3.org/1999/xlink" xmlns:a="http://ns.adobe.com/AdobeSVGViewerExtensions/3.0/"
	 x="0px" y="0px" width="30px" height="30px" viewBox="-0.198 -1.19 30 30" enable-background="new -0.198 -1.19 30 30"
	 xml:space="preserve">
<defs>
</defs>
<path fill="#2FA6DF" d="M29.605,21.481l-0.131-0.8l-22.012,3.57l5.842-2.585c0.001-0.002,0.004-0.002,0.006-0.002l0,0l0,0
	c0.046-0.022,0.087-0.053,0.122-0.087L29.455,5.557c0.158-0.159,0.158-0.415,0-0.573l-4.867-4.865c-0.158-0.159-0.414-0.159-0.572,0
	l-4.582,4.582v0.001l-1.711,1.712c-0.006,0.003-0.01,0.007-0.012,0.012l-9.279,9.278c-0.006,0.004-0.01,0.009-0.015,0.014
	L7.99,16.144c-0.035,0.036-0.064,0.077-0.083,0.123l-3.09,6.979V0.843H4.008v19.385L0.798,0.777L0,0.908l3.946,23.915l-3.613,0.585
	l0.13,0.8l3.544-0.573v1.92h0.389l0.011,0.065l0.4-0.065h0.009v-0.002l0.389-0.063l-0.33-1.998L29.605,21.481z M12.916,20.951
	c-0.219,0.077-0.875,0.259-1.199-0.298c-0.067-0.116-0.095-0.256-0.095-0.405c0-0.345,0.147-0.754,0.287-1.118l8.96-8.994
	l1.43,1.431L12.916,20.951z M24.304,0.977l4.293,4.293L24.566,9.3l-4.275-4.31L24.304,0.977z M19.716,5.562l4.279,4.31l-1.123,1.123
	l-1.717-1.718c-0.076-0.076-0.18-0.119-0.287-0.119l0,0c-0.105,0-0.213,0.043-0.287,0.119l-8.428,8.461
	c-0.03-0.065-0.074-0.128-0.133-0.187c-0.049-0.05-0.102-0.094-0.158-0.127l8.432-8.435c0.16-0.158,0.16-0.414,0-0.572L18.58,6.701
	L19.716,5.562z M9.047,16.232l8.958-8.959l1.432,1.431l-8.561,8.561c-0.114,0.012-0.229,0.026-0.342,0.041
	c-0.448,0.061-0.914,0.122-1.24-0.08c-0.259-0.161-0.332-0.385-0.331-0.587C8.963,16.469,9.013,16.316,9.047,16.232z M8.318,17.337
	c0.11,0.212,0.287,0.414,0.55,0.575c0.574,0.354,1.238,0.269,1.772,0.195c0.292-0.038,0.621-0.082,0.765-0.014
	c-0.017,0.139-0.131,0.433-0.211,0.638c-0.171,0.438-0.382,0.985-0.382,1.521c0,0.277,0.057,0.552,0.205,0.807
	c0.134,0.232,0.299,0.402,0.477,0.523l-6.288,2.785L8.318,17.337z"/>
</svg>
