<?xml version="1.0" encoding="utf-8"?>
<!-- Generator: Adobe Illustrator 15.0.0, SVG Export Plug-In  -->
<!DOCTYPE svg PUBLIC "-//W3C//DTD SVG 1.1//EN" "http://www.w3.org/Graphics/SVG/1.1/DTD/svg11.dtd" [
	<!ENTITY ns_flows "http://ns.adobe.com/Flows/1.0/">
]>
<svg version="1.1"
	 xmlns="http://www.w3.org/2000/svg" xmlns:xlink="http://www.w3.org/1999/xlink" xmlns:a="http://ns.adobe.com/AdobeSVGViewerExtensions/3.0/"
	 x="0px" y="0px" width="195px" height="160px" viewBox="-0.693 -2.294 195 160" enable-background="new -0.693 -2.294 195 160"
	 xml:space="preserve">
<defs>
</defs>
<polygon fill="#808285" points="23.93,67.791 21.305,68.188 20.809,61.945 9.909,61.945 9.909,75.471 19.818,75.471 20.958,70.813 
	23.484,71.012 23.088,76.858 23.484,83.398 20.958,83.547 19.818,78.443 9.909,78.443 9.909,89.592 15.458,90.186 15.606,92.712 
	0,92.712 0.248,90.186 4.905,89.592 4.905,62.044 0.05,61.4 0.297,58.923 24.575,58.923 "/>
<polygon fill="#808285" points="30.32,92.712 30.567,90.186 35.225,89.592 35.225,62.044 30.369,61.4 30.617,58.923 45.084,58.923 
	44.886,61.4 40.229,62.044 40.229,89.592 44.936,90.186 45.134,92.712 "/>
<path fill="#808285" d="M75.306,92.96c-0.843-0.05-4.261-0.248-5.649-0.248H50.533l0.198-2.526l4.558-0.595V62.044L50.385,61.4
	l0.297-2.478h14.962L65.446,61.4l-5.153,0.644v27.547H71.64l1.188-7.48l2.526,0.297L75.306,92.96z"/>
<rect x="79.218" y="78.443" fill="#808285" width="12.188" height="3.468"/>
<path fill="#808285" d="M113.748,92.712l0.198-2.526l4.854-0.594c-0.99-2.428-2.081-5.153-3.27-8.621h-11.692
	c-0.941,2.774-2.378,6.391-3.32,8.621l4.955,0.594l0.149,2.526H92.791l0.247-2.526l3.518-0.594
	c3.418-7.333,8.868-21.751,11.692-30.669h4.559c2.131,6.986,8.571,23.88,11.742,30.669l3.616,0.594l0.149,2.526H113.748z
	 M109.834,63.828h-0.248c-0.991,3.171-3.468,10.75-4.756,14.269h9.711C112.807,73.191,110.875,67.395,109.834,63.828"/>
<path fill="#808285" d="M158.188,94.05l-13.873-16.3l-2.973-0.595l1.04-2.873l3.767,0.544c2.575-0.445,5.251-3.021,5.251-6.985
	c0-4.112-2.625-6.193-6.787-6.193c-1.238,0-3.072,0.1-4.212,0.149v27.795l4.608,0.595l0.148,2.526h-14.566l0.248-2.526l4.657-0.595
	V62.045l-4.855-0.645l0.247-2.478h7.383c0,0,6.391-0.297,7.927-0.297c6.392,0,10.306,3.27,10.306,8.968
	c0,4.854-3.32,8.075-6.838,8.769v0.148l12.437,16.499L158.188,94.05z"/>
<polygon fill="#808285" points="192.618,68.188 190.141,68.584 189.397,61.846 180.976,62.144 180.976,89.591 185.683,90.185 
	185.881,92.713 171.115,92.713 171.265,90.185 175.972,89.591 175.972,62.144 167.747,61.846 166.707,68.584 164.229,68.188 
	164.13,58.774 178.35,59.121 193.113,58.774 "/>
<path fill="#6DCFF6" d="M160.213,53.142h11.193C161.655,23.873,135.004,2.271,103.063,0v10.561
	C129.134,12.706,151.022,29.754,160.213,53.142"/>
<path fill="#00AEEF" d="M34.769,53.142c9.189-23.388,31.078-40.436,57.148-42.581V0C59.978,2.271,33.325,23.873,23.574,53.142
	H34.769z"/>
<path fill="#00BDF2" d="M160.213,102.271c-9.19,23.388-31.079,40.435-57.149,42.581v10.56c31.94-2.27,58.593-23.872,68.343-53.141
	H160.213z"/>
<path fill="#B9E5FB" d="M34.769,102.271H23.574c9.751,29.269,36.402,50.871,68.343,53.141v-10.56
	C65.847,142.706,43.958,125.659,34.769,102.271"/>
</svg>
