<?xml version="1.0" encoding="utf-8"?>
<!-- Generator: Adobe Illustrator 15.0.0, SVG Export Plug-In  -->
<!DOCTYPE svg PUBLIC "-//W3C//DTD SVG 1.1//EN" "http://www.w3.org/Graphics/SVG/1.1/DTD/svg11.dtd" [
	<!ENTITY ns_flows "http://ns.adobe.com/Flows/1.0/">
]>
<svg version="1.1"
	 xmlns="http://www.w3.org/2000/svg" xmlns:xlink="http://www.w3.org/1999/xlink" xmlns:a="http://ns.adobe.com/AdobeSVGViewerExtensions/3.0/"
	 x="0px" y="0px" width="105px" height="100px" viewBox="-0.941 -2.354 105 100" enable-background="new -0.941 -2.354 105 100"
	 xml:space="preserve">
<defs>
</defs>
<polygon fill="#00AEEF" points="12.57,35.61 11.191,35.818 10.931,32.54 5.205,32.54 5.205,39.645 10.41,39.645 11.009,37.197 
	12.336,37.302 12.128,40.374 12.336,43.809 11.009,43.886 10.41,41.205 5.205,41.205 5.205,47.062 8.12,47.373 8.197,48.701 
	0,48.701 0.131,47.373 2.577,47.062 2.577,32.592 0.026,32.253 0.156,30.952 12.909,30.952 "/>
<polygon fill="#00AEEF" points="15.927,48.701 16.057,47.373 18.504,47.061 18.504,32.592 15.953,32.253 16.083,30.951 
	23.683,30.951 23.578,32.253 21.132,32.592 21.132,47.061 23.604,47.373 23.709,48.701 "/>
<path fill="#00AEEF" d="M39.558,48.832c-0.443-0.027-2.238-0.131-2.967-0.131H26.545l0.104-1.328l2.395-0.312v-14.47l-2.576-0.339
	l0.156-1.301h7.859l-0.104,1.301l-2.706,0.339v14.47h5.959l0.625-3.931l1.328,0.156L39.558,48.832z"/>
<rect x="41.612" y="41.205" fill="#00AEEF" width="6.401" height="1.822"/>
<path fill="#00AEEF" d="M59.751,48.701l0.104-1.328l2.552-0.313c-0.521-1.274-1.095-2.706-1.718-4.527h-6.142
	c-0.496,1.458-1.249,3.356-1.745,4.527l2.604,0.313l0.077,1.328h-6.74l0.13-1.328l1.848-0.313
	c1.797-3.852,4.658-11.424,6.143-16.109h2.395c1.119,3.671,4.502,12.545,6.169,16.109l1.898,0.313l0.077,1.328H59.751z
	 M57.695,33.527h-0.131c-0.52,1.666-1.821,5.648-2.499,7.497h5.103C59.257,38.447,58.242,35.402,57.695,33.527"/>
<path fill="#00AEEF" d="M83.096,49.403l-7.289-8.563l-1.561-0.312l0.546-1.51l1.978,0.287c1.355-0.234,2.76-1.589,2.76-3.67
	c0-2.16-1.38-3.254-3.566-3.254c-0.649,0-1.612,0.053-2.211,0.078v14.601l2.42,0.312l0.077,1.328h-7.651l0.132-1.328l2.446-0.312
	v-14.47l-2.551-0.339l0.129-1.301h3.879c0,0,3.357-0.156,4.164-0.156c3.357,0,5.413,1.718,5.413,4.711
	c0,2.55-1.743,4.242-3.592,4.605v0.078l6.532,8.667L83.096,49.403z"/>
<polygon fill="#00AEEF" points="101.182,35.819 99.879,36.026 99.489,32.487 95.064,32.644 95.064,47.061 97.536,47.373 
	97.641,48.701 89.886,48.701 89.965,47.373 92.437,47.061 92.437,32.644 88.116,32.487 87.57,36.026 86.27,35.819 86.216,30.873 
	93.685,31.056 101.442,30.873 "/>
<path fill="#00AEEF" d="M4.621,90.384l-0.659,0.391c-0.123-0.214-0.24-0.353-0.353-0.418c-0.116-0.074-0.266-0.112-0.449-0.112
	c-0.226,0-0.413,0.064-0.562,0.192c-0.148,0.125-0.223,0.283-0.223,0.475c0,0.262,0.195,0.474,0.585,0.634l0.538,0.22
	c0.437,0.177,0.756,0.393,0.958,0.646c0.202,0.255,0.303,0.567,0.303,0.936c0,0.495-0.165,0.904-0.494,1.229
	c-0.333,0.324-0.745,0.487-1.238,0.487c-0.467,0-0.853-0.138-1.158-0.415c-0.299-0.276-0.486-0.666-0.561-1.167l0.823-0.182
	c0.037,0.316,0.103,0.534,0.195,0.655c0.167,0.232,0.411,0.349,0.731,0.349c0.253,0,0.464-0.085,0.632-0.254
	c0.167-0.17,0.25-0.386,0.25-0.646c0-0.104-0.015-0.2-0.043-0.287c-0.029-0.088-0.074-0.168-0.137-0.241
	C3.7,92.802,3.62,92.733,3.522,92.67s-0.215-0.125-0.349-0.184l-0.52-0.215c-0.736-0.313-1.105-0.769-1.105-1.367
	c0-0.405,0.155-0.743,0.465-1.016c0.308-0.273,0.693-0.41,1.153-0.41C3.787,89.479,4.271,89.78,4.621,90.384"/>
<polygon fill="#00AEEF" points="7.326,90.347 7.326,94.965 6.514,94.965 6.514,90.347 5.275,90.347 5.275,89.582 8.561,89.582 
	8.561,90.347 "/>
<path fill="#00AEEF" d="M10.098,89.582v3.243c0,0.462,0.075,0.8,0.227,1.014c0.226,0.309,0.542,0.463,0.951,0.463
	c0.411,0,0.729-0.154,0.955-0.463c0.151-0.206,0.228-0.545,0.228-1.014v-3.243h0.812v3.466c0,0.566-0.177,1.034-0.53,1.401
	c-0.397,0.408-0.886,0.613-1.464,0.613c-0.579,0-1.065-0.205-1.461-0.613c-0.353-0.367-0.529-0.835-0.529-1.401v-3.466H10.098z"/>
<path fill="#00AEEF" d="M14.56,94.965v-5.383h1.129c0.542,0,0.97,0.055,1.284,0.161c0.336,0.104,0.643,0.282,0.916,0.534
	c0.556,0.505,0.833,1.172,0.833,1.997c0,0.826-0.29,1.496-0.868,2.008c-0.29,0.255-0.595,0.433-0.913,0.533
	c-0.298,0.101-0.72,0.149-1.265,0.149H14.56z M15.372,94.202h0.365c0.365,0,0.669-0.039,0.91-0.115
	c0.242-0.082,0.46-0.21,0.655-0.388c0.399-0.364,0.6-0.84,0.6-1.425c0-0.591-0.197-1.069-0.592-1.437
	c-0.356-0.327-0.881-0.491-1.573-0.491h-0.365V94.202z"/>
<rect x="19.743" y="89.582" fill="#00AEEF" width="0.813" height="5.383"/>
<path fill="#00AEEF" d="M21.58,92.25c0-0.759,0.277-1.408,0.833-1.953c0.553-0.543,1.218-0.815,1.994-0.815
	c0.768,0,1.425,0.274,1.974,0.822c0.551,0.548,0.826,1.208,0.826,1.978c0,0.773-0.277,1.431-0.83,1.969
	c-0.556,0.542-1.226,0.813-2.012,0.813c-0.694,0-1.318-0.24-1.871-0.722C21.885,93.81,21.58,93.111,21.58,92.25 M22.399,92.26
	c0,0.595,0.2,1.083,0.6,1.469c0.397,0.382,0.856,0.574,1.377,0.574c0.565,0,1.041-0.194,1.43-0.586
	c0.388-0.395,0.582-0.875,0.582-1.442c0-0.575-0.192-1.056-0.575-1.443c-0.381-0.391-0.854-0.587-1.416-0.587
	c-0.56,0-1.032,0.196-1.418,0.587C22.592,91.217,22.399,91.693,22.399,92.26"/>
<polygon fill="#00AEEF" points="31.362,94.202 33.945,94.202 33.945,94.965 30.027,94.965 32.669,90.347 30.459,90.347 
	30.459,89.582 34.005,89.582 "/>
<path fill="#00AEEF" d="M38.056,93.657h-2.305l-0.6,1.308h-0.875l2.663-5.721l2.569,5.721H38.62L38.056,93.657z M37.725,92.895
	l-0.799-1.83l-0.836,1.83H37.725z"/>
<path fill="#00AEEF" d="M45.153,92.162h2.223v0.178c0,0.405-0.047,0.762-0.142,1.073c-0.094,0.289-0.25,0.558-0.472,0.81
	c-0.499,0.562-1.134,0.844-1.906,0.844c-0.753,0-1.397-0.272-1.935-0.816c-0.537-0.546-0.806-1.201-0.806-1.965
	c0-0.782,0.273-1.443,0.819-1.988c0.547-0.546,1.211-0.818,1.994-0.818c0.421,0,0.813,0.085,1.179,0.257
	c0.349,0.172,0.691,0.452,1.028,0.837l-0.579,0.554c-0.441-0.588-0.98-0.882-1.613-0.882c-0.57,0-1.048,0.197-1.434,0.59
	c-0.386,0.386-0.578,0.869-0.578,1.451c0,0.599,0.215,1.093,0.645,1.48c0.401,0.361,0.837,0.54,1.308,0.54
	c0.399,0,0.759-0.135,1.076-0.404c0.319-0.271,0.497-0.597,0.534-0.976h-1.342V92.162z"/>
<path fill="#00AEEF" d="M50.222,92.672l1.667,2.293h-0.994l-1.537-2.202H49.21v2.202h-0.812v-5.383h0.951
	c0.712,0,1.226,0.135,1.541,0.401c0.349,0.298,0.522,0.69,0.522,1.179c0,0.382-0.108,0.708-0.326,0.982
	C50.867,92.42,50.579,92.595,50.222,92.672 M49.21,92.054h0.259c0.77,0,1.154-0.293,1.154-0.882c0-0.551-0.375-0.825-1.123-0.825
	h-0.29V92.054z"/>
<path fill="#00AEEF" d="M55.858,93.657h-2.304l-0.601,1.308H52.08l2.663-5.721l2.568,5.721h-0.888L55.858,93.657z M55.528,92.895
	l-0.801-1.83l-0.835,1.83H55.528z"/>
<polygon fill="#00AEEF" points="60.673,90.347 58.798,90.347 58.798,91.64 60.607,91.64 60.607,92.403 58.798,92.403 58.798,94.965 
	57.985,94.965 57.985,89.582 60.673,89.582 "/>
<rect x="61.612" y="89.582" fill="#00AEEF" width="0.814" height="5.383"/>
<path fill="#00AEEF" d="M67.697,89.872v0.963c-0.47-0.394-0.955-0.591-1.457-0.591c-0.554,0-1.02,0.199-1.399,0.597
	c-0.38,0.396-0.571,0.879-0.571,1.45c0,0.564,0.191,1.041,0.571,1.43c0.382,0.389,0.85,0.582,1.403,0.582
	c0.285,0,0.528-0.047,0.728-0.14c0.111-0.046,0.228-0.109,0.347-0.188c0.12-0.079,0.247-0.174,0.379-0.285v0.979
	c-0.466,0.264-0.954,0.395-1.465,0.395c-0.769,0-1.424-0.269-1.969-0.806c-0.542-0.541-0.812-1.193-0.812-1.959
	c0-0.686,0.226-1.296,0.679-1.834c0.558-0.657,1.279-0.985,2.165-0.985C66.778,89.479,67.247,89.609,67.697,89.872 M67.397,87.979
	l-1.223,1.119l-1.241-1.119l0.536-0.415l0.701,0.662l0.696-0.662L67.397,87.979z"/>
<polygon fill="#00AEEF" points="69.685,91.729 71.78,89.582 72.864,89.582 70.431,92.02 72.878,94.965 71.79,94.965 69.853,92.57 
	69.685,92.737 69.685,94.965 68.872,94.965 68.872,89.582 69.685,89.582 "/>
<rect x="73.602" y="89.582" fill="#00AEEF" width="0.813" height="5.383"/>
<path fill="#00AEEF" d="M77.91,94.965v-5.383h1.131c0.54,0,0.969,0.055,1.283,0.161c0.336,0.104,0.643,0.282,0.917,0.534
	c0.554,0.505,0.831,1.172,0.831,1.997c0,0.826-0.289,1.496-0.868,2.008c-0.289,0.255-0.594,0.433-0.913,0.533
	c-0.297,0.101-0.718,0.149-1.264,0.149H77.91z M78.723,94.202h0.366c0.365,0,0.668-0.039,0.909-0.115
	c0.243-0.082,0.461-0.21,0.656-0.388c0.399-0.364,0.6-0.84,0.6-1.425c0-0.591-0.196-1.069-0.592-1.437
	c-0.355-0.327-0.88-0.491-1.573-0.491h-0.366V94.202z"/>
<rect x="83.094" y="89.582" fill="#00AEEF" width="0.813" height="5.383"/>
<polygon fill="#00AEEF" points="86.131,94.202 88.714,94.202 88.714,94.965 84.795,94.965 87.438,90.347 85.229,90.347 
	85.229,89.582 88.772,89.582 "/>
<path fill="#00AEEF" d="M92.824,93.657h-2.304l-0.601,1.308h-0.874l2.663-5.721l2.568,5.721H93.39L92.824,93.657z M92.492,92.895
	l-0.797-1.83l-0.837,1.83H92.492z"/>
<path fill="#00AEEF" d="M96.589,89.582v3.483c0,0.417-0.028,0.727-0.087,0.931c-0.058,0.232-0.156,0.429-0.297,0.589
	c-0.272,0.319-0.631,0.478-1.081,0.478c-0.339,0-0.655-0.088-0.951-0.266l0.397-0.693c0.199,0.133,0.383,0.198,0.554,0.198
	c0.243,0,0.409-0.091,0.504-0.274c0.097-0.185,0.145-0.504,0.145-0.962v-3.483H96.589z"/>
<polygon fill="#00AEEF" points="97.88,94.965 97.88,89.217 101.805,93.323 101.805,89.582 102.617,89.582 102.617,95.293 
	98.692,91.196 98.692,94.965 "/>
<path fill="#00AEEF" d="M84.158,27.915h5.88C84.917,12.541,70.917,1.193,54.14,0v5.547C67.834,6.675,79.33,15.629,84.158,27.915"/>
<path fill="#00AEEF" d="M18.264,27.915c4.827-12.286,16.325-21.24,30.02-22.368V0C31.506,1.193,17.505,12.541,12.385,27.915H18.264z
	"/>
<path fill="#00AEEF" d="M84.158,53.724C79.332,66.008,67.834,74.963,54.14,76.091v5.546c16.777-1.191,30.777-12.539,35.898-27.913
	H84.158z"/>
<path fill="#00AEEF" d="M18.264,53.724h-5.88c5.121,15.374,19.122,26.722,35.899,27.913v-5.546
	C34.589,74.963,23.091,66.008,18.264,53.724"/>
</svg>
