<?xml version="1.0" encoding="utf-8"?>
<!-- Generator: Adobe Illustrator 15.0.0, SVG Export Plug-In  -->
<!DOCTYPE svg PUBLIC "-//W3C//DTD SVG 1.1//EN" "http://www.w3.org/Graphics/SVG/1.1/DTD/svg11.dtd" [
	<!ENTITY ns_flows "http://ns.adobe.com/Flows/1.0/">
]>
<svg version="1.1"
	 xmlns="http://www.w3.org/2000/svg" xmlns:xlink="http://www.w3.org/1999/xlink" xmlns:a="http://ns.adobe.com/AdobeSVGViewerExtensions/3.0/"
	 x="0px" y="0px" width="15px" height="15px" viewBox="-0.138 -0.119 15 15" enable-background="new -0.138 -0.119 15 15"
	 xml:space="preserve">
<defs>
</defs>
<path display="none" fill="#BFBEBE" d="M7.362,0C4.116,0,1.485,2.631,1.485,5.877c0,4.885,5.877,8.885,5.877,8.885
	s5.877-4.293,5.877-8.885C13.239,2.631,10.608,0,7.362,0z M7.362,8.678c-1.548,0-2.803-1.254-2.803-2.801s1.255-2.802,2.803-2.802
	c1.547,0,2.801,1.255,2.801,2.802S8.909,8.678,7.362,8.678z"/>
<path fill="#BEBEBE" d="M14.396,11.655L12.12,9.381c-0.452-0.451-1.202-0.438-1.671,0.031l-1.146,1.146
	c-0.072-0.04-0.147-0.081-0.226-0.126c-0.725-0.4-1.715-0.95-2.757-1.993c-1.045-1.044-1.595-2.036-1.997-2.76
	C4.282,5.602,4.241,5.528,4.201,5.458L4.97,4.69l0.378-0.378c0.469-0.47,0.482-1.22,0.03-1.672L3.104,0.365
	C2.653-0.086,1.902-0.073,1.433,0.396L0.792,1.041l0.017,0.018C0.594,1.333,0.415,1.649,0.281,1.99
	c-0.123,0.325-0.2,0.634-0.235,0.945c-0.3,2.489,0.837,4.764,3.924,7.851c4.268,4.267,7.707,3.944,7.854,3.929
	c0.323-0.039,0.634-0.116,0.948-0.238c0.338-0.132,0.653-0.312,0.928-0.525l0.015,0.012l0.649-0.636
	C14.833,12.858,14.847,12.107,14.396,11.655z"/>
</svg>
