<?xml version="1.0" encoding="utf-8"?>
<!-- Generator: Adobe Illustrator 15.0.0, SVG Export Plug-In  -->
<!DOCTYPE svg PUBLIC "-//W3C//DTD SVG 1.1//EN" "http://www.w3.org/Graphics/SVG/1.1/DTD/svg11.dtd" [
	<!ENTITY ns_flows "http://ns.adobe.com/Flows/1.0/">
]>
<svg version="1.1"
	 xmlns="http://www.w3.org/2000/svg" xmlns:xlink="http://www.w3.org/1999/xlink" xmlns:a="http://ns.adobe.com/AdobeSVGViewerExtensions/3.0/"
	 x="0px" y="0px" width="190px" height="190px" viewBox="-5.677 -1.097 190 190" enable-background="new -5.677 -1.097 190 190"
	 xml:space="preserve">
<defs>
</defs>
<path fill="#FFFFFF" d="M165.122,64.218h13.524C166.865,28.85,134.654,2.747,96.063,0v12.762
	C127.564,15.354,154.018,35.956,165.122,64.218"/>
<path fill="#FFFFFF" d="M13.528,64.218C24.633,35.956,51.084,15.354,82.59,12.763V0C43.992,2.747,11.785,28.85,0,64.218H13.528z"/>
<path fill="#FFFFFF" d="M165.122,123.588c-11.104,28.266-37.56,48.865-69.062,51.458v12.761
	c38.594-2.744,70.805-28.851,82.586-64.219H165.122z"/>
<path fill="#FFFFFF" d="M13.528,123.588H0.001c11.784,35.366,43.991,61.475,82.589,64.219v-12.761
	C51.083,172.453,24.634,151.854,13.528,123.588"/>
<path fill="#FFFFFF" d="M137.285,92.825H37.191c-0.601,0-1.09-0.492-1.09-1.094V56.758c0-0.603,0.489-1.091,1.09-1.091h83.758
	c0.289,0,0.568,0.115,0.771,0.318l16.336,16.337c0.207,0.204,0.32,0.481,0.32,0.771V91.73
	C138.379,92.333,137.893,92.825,137.285,92.825 M38.29,90.638h97.901v-17.09l-15.694-15.697H38.29V90.638z"/>
<path fill="#FFFFFF" d="M137.285,132.143H37.194c-0.604,0-1.095-0.492-1.095-1.093v-25.663c0-0.603,0.489-1.091,1.095-1.091h100.091
	c0.604,0,1.094,0.488,1.094,1.091v25.663C138.379,131.65,137.893,132.143,137.285,132.143 M38.29,129.957h97.903V106.48H38.29
	V129.957z"/>
<path fill="#FFFFFF" d="M162.74,114.921h-25.457c-0.604,0-1.092-0.489-1.092-1.093v-7.348H38.287v7.348
	c0,0.602-0.487,1.093-1.093,1.093H15.905c-0.601,0-1.089-0.489-1.089-1.093V79.931c0-0.603,0.488-1.094,1.089-1.094h21.288
	c0.604,0,1.093,0.491,1.093,1.094v10.707h97.905V79.931c0-0.603,0.488-1.094,1.092-1.094h25.457c0.604,0,1.095,0.491,1.095,1.094
	v33.897C163.835,114.43,163.348,114.921,162.74,114.921 M138.379,112.737h23.271V81.025h-23.271v10.707
	c0,0.603-0.486,1.094-1.096,1.094H37.194c-0.604,0-1.093-0.492-1.093-1.094V81.025H17.002v31.712h19.099v-7.352
	c0-0.601,0.489-1.091,1.093-1.091h100.089c0.605,0,1.096,0.49,1.096,1.091V112.737L138.379,112.737z"/>
<path fill="#FFFFFF" d="M102.803,112.905H65.861c-0.604,0-1.094-0.487-1.094-1.093c0-0.604,0.488-1.094,1.094-1.094h36.942
	c0.604,0,1.092,0.486,1.092,1.094C103.895,112.418,103.402,112.905,102.803,112.905"/>
<path fill="#FFFFFF" d="M102.803,118.423H65.861c-0.604,0-1.094-0.489-1.094-1.094s0.488-1.097,1.094-1.097h36.942
	c0.604,0,1.092,0.492,1.092,1.097C103.895,117.932,103.402,118.423,102.803,118.423"/>
<path fill="#FFFFFF" d="M102.803,124.302H65.861c-0.604,0-1.094-0.487-1.094-1.093c0-0.604,0.488-1.093,1.094-1.093h36.942
	c0.604,0,1.092,0.489,1.092,1.093S103.402,124.302,102.803,124.302"/>
<path fill="#FFFFFF" d="M137.285,74.189h-16.338c-0.604,0-1.094-0.49-1.094-1.092V56.758c0-0.44,0.27-0.839,0.676-1.01
	c0.408-0.166,0.881-0.075,1.189,0.238l16.34,16.337c0.313,0.312,0.405,0.783,0.237,1.189
	C138.127,73.922,137.729,74.189,137.285,74.189 M122.043,72.003h12.604l-12.604-12.606V72.003z"/>
<path fill="#FFFFFF" d="M156.086,87.581c0-1.57-1.275-2.843-2.846-2.843c-1.569,0-2.842,1.272-2.842,2.843
	c0,1.568,1.271,2.836,2.842,2.836C154.811,90.417,156.086,89.15,156.086,87.581"/>
<path fill="#FFFFFF" d="M156.086,95.669c0-1.572-1.275-2.844-2.846-2.844c-1.569,0-2.842,1.271-2.842,2.844
	c0,1.567,1.271,2.837,2.842,2.837C154.811,98.506,156.086,97.236,156.086,95.669"/>
<path fill="#FFFFFF" d="M156.086,104.297c0-1.572-1.275-2.843-2.846-2.843c-1.569,0-2.842,1.271-2.842,2.843s1.271,2.84,2.842,2.84
	C154.811,107.137,156.086,105.868,156.086,104.297"/>
</svg>
