<?xml version="1.0" encoding="utf-8"?>
<!-- Generator: Adobe Illustrator 15.0.0, SVG Export Plug-In  -->
<!DOCTYPE svg PUBLIC "-//W3C//DTD SVG 1.1//EN" "http://www.w3.org/Graphics/SVG/1.1/DTD/svg11.dtd" [
	<!ENTITY ns_flows "http://ns.adobe.com/Flows/1.0/">
]>
<svg version="1.1"
	 xmlns="http://www.w3.org/2000/svg" xmlns:xlink="http://www.w3.org/1999/xlink" xmlns:a="http://ns.adobe.com/AdobeSVGViewerExtensions/3.0/"
	 x="0px" y="0px" width="55px" height="55px" viewBox="-1.841 -0.525 55 55" enable-background="new -1.841 -0.525 55 55"
	 xml:space="preserve">
<defs>
</defs>
<path fill="#FFFFFF" d="M47.433,18.447h3.886C47.935,8.287,38.682,0.789,27.595,0v3.666C36.646,4.411,44.243,10.329,47.433,18.447"
	/>
<path fill="#FFFFFF" d="M3.887,18.447c3.19-8.118,10.788-14.036,19.839-14.781V0C12.638,0.789,3.386,8.287,0,18.447H3.887z"/>
<path fill="#FFFFFF" d="M47.433,35.502c-3.189,8.118-10.787,14.036-19.838,14.781v3.666c11.087-0.788,20.34-8.287,23.724-18.447
	H47.433z"/>
<path fill="#FFFFFF" d="M3.887,35.502H0c3.386,10.16,12.638,17.659,23.726,18.447v-3.666C14.675,49.538,7.077,43.62,3.887,35.502"/>
<path fill="#FFFFFF" d="M33.024,24.906l1.103-0.208c0.066-0.012,0.117-0.063,0.129-0.129c0.013-0.066-0.018-0.133-0.074-0.168
	l-3.301-2.038c-0.058-0.034-0.131-0.031-0.184,0.01s-0.076,0.109-0.058,0.174l1.076,3.728c0.019,0.064,0.075,0.11,0.142,0.116
	c0.005,0.001,0.01,0.001,0.015,0.001c0.062,0,0.118-0.035,0.145-0.091l0.654-1.329l0.029-0.005L33.024,24.906z M32.531,24.669
	c-0.049,0.01-0.093,0.042-0.115,0.087l-0.505,1.026l-0.844-2.922l2.588,1.597L32.531,24.669z"/>
<path fill="#FFFFFF" d="M32.913,39.983H18.708c-0.657,0-1.192-0.535-1.192-1.192c0-0.658,0.535-1.193,1.192-1.193
	c0.009,0,0.018,0.001,0.026,0.001c0.023,0.001,2.462,0.112,3.648-1.015c0.423-0.402,0.628-0.908,0.628-1.547
	c0-0.293,0.034-0.581,0.101-0.859c0.062-0.256,0.319-0.413,0.575-0.352c0.255,0.062,0.413,0.318,0.352,0.574
	c-0.05,0.208-0.074,0.416-0.074,0.637c0,0.902-0.313,1.656-0.928,2.24c-1.442,1.367-4.076,1.285-4.336,1.272
	c-0.129,0.006-0.232,0.111-0.232,0.241c0,0.133,0.108,0.241,0.24,0.241h14.205c0.132,0,0.24-0.108,0.24-0.241
	c0-0.128-0.101-0.233-0.227-0.241c-0.328,0.027-3.024,0.2-4.522-1.165c-0.653-0.597-0.985-1.386-0.985-2.348
	c0-0.225-0.021-0.436-0.067-0.647c-0.057-0.257,0.107-0.511,0.365-0.566c0.256-0.055,0.51,0.108,0.565,0.365
	c0.059,0.275,0.09,0.56,0.09,0.849c0,0.692,0.22,1.229,0.674,1.643c1.255,1.145,3.797,0.923,3.822,0.921
	c0.015-0.002,0.029-0.003,0.045-0.003c0.657,0,1.192,0.535,1.192,1.193C34.105,39.448,33.57,39.983,32.913,39.983"/>
<path fill="#FFFFFF" d="M38.161,34.765H27.521c-0.263,0-0.476-0.212-0.476-0.476s0.213-0.476,0.476-0.476h10.641
	c0.511,0,0.928-0.416,0.928-0.928V15.845c0-0.512-0.417-0.928-0.928-0.928H13.159c-0.512,0-0.928,0.416-0.928,0.928v17.041
	c0,0.512,0.416,0.928,0.928,0.928h11.943c0.263,0,0.476,0.212,0.476,0.476s-0.213,0.476-0.476,0.476H13.159
	c-1.036,0-1.881-0.843-1.881-1.879V15.845c0-1.036,0.845-1.88,1.881-1.88h25.002c1.036,0,1.88,0.844,1.88,1.88v17.041
	C40.041,33.922,39.197,34.765,38.161,34.765"/>
<path fill="#FFFFFF" d="M37.492,31.063H13.828c-0.264,0-0.477-0.214-0.477-0.477V16.409c0-0.264,0.213-0.477,0.477-0.477h23.664
	c0.263,0,0.477,0.213,0.477,0.477v14.178C37.969,30.85,37.755,31.063,37.492,31.063 M14.304,30.11h22.712V16.884H14.304V30.11z"/>
<path fill="#FFFFFF" d="M28.285,32.975h-5.25c-0.263,0-0.477-0.213-0.477-0.477c0-0.263,0.214-0.476,0.477-0.476h5.25
	c0.263,0,0.477,0.213,0.477,0.476C28.762,32.762,28.548,32.975,28.285,32.975"/>
</svg>
