<?xml version="1.0" encoding="utf-8"?>
<!-- Generator: Adobe Illustrator 15.0.0, SVG Export Plug-In  -->
<!DOCTYPE svg PUBLIC "-//W3C//DTD SVG 1.1//EN" "http://www.w3.org/Graphics/SVG/1.1/DTD/svg11.dtd" [
	<!ENTITY ns_flows "http://ns.adobe.com/Flows/1.0/">
]>
<svg version="1.1"
	 xmlns="http://www.w3.org/2000/svg" xmlns:xlink="http://www.w3.org/1999/xlink" xmlns:a="http://ns.adobe.com/AdobeSVGViewerExtensions/3.0/"
	 x="0px" y="0px" width="55px" height="55px" viewBox="-1.841 -0.525 55 55" enable-background="new -1.841 -0.525 55 55"
	 xml:space="preserve">
<defs>
</defs>
<path fill="#FFFFFF" d="M47.433,18.447h3.886C47.934,8.288,38.682,0.789,27.595,0v3.666C36.645,4.411,44.242,10.329,47.433,18.447"
	/>
<path fill="#FFFFFF" d="M3.886,18.447c3.19-8.119,10.788-14.037,19.839-14.781V0C12.637,0.789,3.385,8.288,0,18.447H3.886z"/>
<path fill="#FFFFFF" d="M47.433,35.502c-3.19,8.119-10.788,14.036-19.838,14.782v3.665c11.087-0.787,20.339-8.287,23.724-18.447
	H47.433z"/>
<path fill="#FFFFFF" d="M3.886,35.502H0c3.385,10.16,12.637,17.66,23.725,18.447v-3.665C14.674,49.538,7.077,43.621,3.886,35.502"/>
<path fill="#FFFFFF" d="M31.746,24.643h-2.102c-0.146,0-0.263-0.117-0.263-0.263v-1.049c0-0.369-0.193-0.532-0.594-0.839
	c-0.197-0.153-0.424-0.326-0.637-0.562c-0.563-0.628-0.872-1.437-0.872-2.278c0-1.882,1.533-3.417,3.416-3.417
	s3.415,1.534,3.415,3.417c0,0.841-0.31,1.65-0.872,2.278c-0.214,0.236-0.438,0.409-0.638,0.562c-0.4,0.307-0.593,0.47-0.593,0.839
	v1.049C32.008,24.525,31.892,24.643,31.746,24.643 M29.906,24.118h1.578v-0.787c0-0.646,0.405-0.956,0.797-1.257
	c0.188-0.145,0.386-0.295,0.565-0.498c0.477-0.528,0.739-1.213,0.739-1.925c0-1.593-1.298-2.889-2.891-2.889
	c-1.596,0-2.892,1.296-2.892,2.889c0,0.712,0.263,1.397,0.74,1.925c0.178,0.202,0.375,0.353,0.565,0.498
	c0.392,0.301,0.797,0.611,0.797,1.257V24.118z"/>
<path fill="#FFFFFF" d="M29.645,26.22c-0.119,0-0.226-0.08-0.256-0.199c-0.035-0.141,0.05-0.284,0.19-0.319l2.103-0.524
	c0.141-0.034,0.282,0.049,0.319,0.19c0.036,0.141-0.052,0.284-0.192,0.318l-2.102,0.527C29.685,26.218,29.664,26.22,29.645,26.22"/>
<path fill="#FFFFFF" d="M24.863,17.391c-0.095-0.071-0.132-0.199-0.084-0.313c0.056-0.134,0.209-0.197,0.344-0.141l1.997,0.843
	c0.132,0.057,0.196,0.209,0.141,0.343c-0.056,0.134-0.212,0.196-0.345,0.141l-1.998-0.84C24.897,17.414,24.878,17.403,24.863,17.391
	"/>
<path fill="#FFFFFF" d="M36.54,17.391c0.095-0.071,0.133-0.199,0.085-0.313c-0.056-0.134-0.21-0.197-0.345-0.141l-1.996,0.843
	c-0.132,0.057-0.195,0.209-0.14,0.343c0.056,0.134,0.211,0.196,0.344,0.141l1.998-0.84C36.507,17.414,36.524,17.403,36.54,17.391"/>
<path fill="#FFFFFF" d="M27.829,13.82c-0.081-0.085-0.212-0.109-0.319-0.049c-0.128,0.071-0.172,0.232-0.101,0.358l1.063,1.888
	c0.073,0.125,0.231,0.171,0.357,0.101c0.128-0.071,0.171-0.233,0.101-0.358l-1.063-1.889C27.855,13.852,27.843,13.835,27.829,13.82"
	/>
<path fill="#FFFFFF" d="M33.362,13.82c0.082-0.085,0.214-0.109,0.321-0.049c0.126,0.071,0.172,0.232,0.101,0.358l-1.063,1.888
	c-0.072,0.125-0.231,0.171-0.358,0.101c-0.126-0.071-0.17-0.233-0.1-0.358l1.063-1.889C33.336,13.852,33.349,13.835,33.362,13.82"/>
<path fill="#FFFFFF" d="M29.645,27.271c-0.119,0-0.226-0.08-0.256-0.199c-0.035-0.141,0.05-0.284,0.19-0.319l2.103-0.526
	c0.141-0.035,0.282,0.051,0.319,0.192c0.036,0.14-0.052,0.284-0.192,0.318l-2.102,0.525C29.685,27.268,29.664,27.271,29.645,27.271"
	/>
<path fill="#FFFFFF" d="M31.22,20.439c-0.067,0-0.135-0.026-0.186-0.077l-0.864-0.865l-0.866,0.865c-0.103,0.103-0.27,0.103-0.371,0
	c-0.104-0.102-0.104-0.269,0-0.372l1.051-1.051c0.103-0.103,0.271-0.103,0.371,0l0.865,0.866l0.865-0.866
	c0.103-0.103,0.271-0.103,0.372,0c0.102,0.103,0.102,0.27,0,0.372l-1.052,1.052C31.354,20.413,31.287,20.439,31.22,20.439"/>
<path fill="#FFFFFF" d="M30.695,24.643c-0.146,0-0.264-0.118-0.264-0.263v-2.627c0-0.146,0.118-0.262,0.264-0.262
	c0.145,0,0.261,0.116,0.261,0.262v2.627C30.956,24.525,30.84,24.643,30.695,24.643"/>
<path fill="#FFFFFF" d="M31.673,29.339c-1.5,0.178-3.029-0.021-4.46-0.621c-0.307-0.128-0.39-0.418-0.29-0.631
	c0.101-0.217,0.297-0.327,0.638-0.215c2.01,0.788,4.19,0.816,6.183-0.012c1.991-0.831,3.54-2.387,4.361-4.382
	c0.822-1.995,0.817-4.19-0.013-6.183c-0.831-1.991-2.386-3.54-4.381-4.361c-3.455-1.423-7.401-0.312-9.6,2.704
	c-0.148,0.204-0.434,0.249-0.639,0.1c-0.204-0.149-0.25-0.436-0.1-0.639c2.447-3.356,6.84-4.593,10.686-3.01
	c2.221,0.914,3.953,2.639,4.877,4.855s0.929,4.661,0.014,6.882c-0.915,2.221-2.638,3.953-4.854,4.876
	C33.308,29.031,32.495,29.243,31.673,29.339"/>
<path fill="#FFFFFF" d="M19.469,42.543c-0.08,0-0.16-0.017-0.234-0.053l-7.238-3.443c-0.218-0.104-0.341-0.336-0.304-0.574
	c0.016-0.105,0.415-2.597,1.616-5.043c0.489-0.997,1.049-1.852,1.663-2.543c0.199-0.224,0.542-0.243,0.767-0.045
	c0.225,0.2,0.244,0.544,0.045,0.768c-0.549,0.617-1.054,1.391-1.5,2.299c-0.857,1.748-1.287,3.558-1.443,4.335l6.631,3.157
	l6.878-3.158c-0.284-1.278-1.333-5.248-3.716-7.261c-0.229-0.194-0.258-0.536-0.064-0.767c0.193-0.229,0.537-0.258,0.766-0.064
	c3.154,2.665,4.131,8.082,4.17,8.313c0.043,0.243-0.083,0.484-0.309,0.587l-7.502,3.444C19.624,42.527,19.546,42.543,19.469,42.543"
	/>
<path fill="#FFFFFF" d="M19.469,30.842c-2.28,0-4.054-2.52-4.737-4.86c-0.085-0.289,0.081-0.589,0.37-0.674
	c0.288-0.084,0.589,0.081,0.673,0.369c0.578,1.978,2.068,4.078,3.694,4.078c2.102,0,3.845-3.346,3.949-5.516
	c0.014-0.299,0.269-0.531,0.569-0.516c0.3,0.014,0.531,0.269,0.517,0.568C24.379,26.899,22.307,30.842,19.469,30.842"/>
<path fill="#FFFFFF" d="M14.339,26.479c-0.232,0-0.44-0.148-0.515-0.369c-0.171-0.508-0.356-1.385-0.356-2.32
	c0-3.387,2.755-6.143,6.141-6.143c3.204,0,5.894,2.504,6.123,5.7c0.006,0.098-0.013,0.196-0.057,0.283
	c-0.646,1.284-3.311,1.624-3.838,1.679c-0.18,0.018-0.354-0.051-0.47-0.188c-0.117-0.137-0.158-0.32-0.111-0.493
	c0-0.003,0.072-0.282,0.129-0.802c-1.775,1.418-5.099,2.558-7.019,2.651C14.357,26.479,14.348,26.479,14.339,26.479 M19.609,18.734
	c-2.787,0-5.052,2.268-5.052,5.055c0,0.585,0.084,1.146,0.184,1.565c1.833-0.222,4.718-1.284,6.129-2.515
	c0.311-0.271,0.527-0.536,0.623-0.764c0.102-0.237,0.354-0.372,0.605-0.321c0.252,0.05,0.436,0.268,0.438,0.524
	c0.006,0.376-0.002,0.749-0.025,1.106c-0.017,0.281-0.041,0.526-0.067,0.732c0.876-0.169,1.86-0.481,2.187-0.871
	C24.36,20.703,22.188,18.734,19.609,18.734"/>
</svg>
