<?xml version="1.0" encoding="utf-8"?>
<!-- Generator: Adobe Illustrator 15.0.0, SVG Export Plug-In  -->
<!DOCTYPE svg PUBLIC "-//W3C//DTD SVG 1.1//EN" "http://www.w3.org/Graphics/SVG/1.1/DTD/svg11.dtd" [
	<!ENTITY ns_flows "http://ns.adobe.com/Flows/1.0/">
]>
<svg version="1.1"
	 xmlns="http://www.w3.org/2000/svg" xmlns:xlink="http://www.w3.org/1999/xlink" xmlns:a="http://ns.adobe.com/AdobeSVGViewerExtensions/3.0/"
	 x="0px" y="0px" width="55px" height="55px" viewBox="-1.841 -0.525 55 55" enable-background="new -1.841 -0.525 55 55"
	 xml:space="preserve">
<defs>
</defs>
<path fill="#FFFFFF" d="M47.433,18.447h3.886C47.934,8.287,38.681,0.789,27.594,0v3.666C36.644,4.411,44.242,10.329,47.433,18.447"
	/>
<path fill="#FFFFFF" d="M3.886,18.447c3.19-8.118,10.788-14.037,19.838-14.781V0C12.637,0.789,3.385,8.287,0,18.447H3.886z"/>
<path fill="#FFFFFF" d="M47.433,35.502c-3.19,8.119-10.789,14.037-19.839,14.782v3.665c11.087-0.788,20.34-8.288,23.725-18.447
	H47.433z"/>
<path fill="#FFFFFF" d="M3.886,35.502H0c3.385,10.159,12.637,17.659,23.724,18.447v-3.665C14.674,49.539,7.076,43.621,3.886,35.502"
	/>
<path fill="#FFFFFF" d="M25.67,38.376c-5.508,0-7.483-2.386-7.564-2.487s-0.113-0.233-0.088-0.36
	c0.039-0.192,0.975-4.741,3.984-7.282c0.185-0.157,0.461-0.133,0.618,0.052c0.156,0.186,0.133,0.462-0.052,0.618
	c-2.416,2.041-3.417,5.645-3.64,6.565c0.507,0.48,2.464,2.018,6.742,2.018c4.296,0,6.069-1.551,6.499-2.01
	c-0.114-0.605-0.525-2.535-1.433-4.387c-0.323-0.656-0.939-1.339-1.481-1.941c-0.089-0.099-0.175-0.194-0.259-0.289
	c-0.161-0.182-0.145-0.458,0.036-0.619c0.182-0.161,0.458-0.145,0.619,0.037c0.083,0.092,0.168,0.187,0.255,0.284
	c0.581,0.645,1.239,1.375,1.616,2.143c1.15,2.345,1.532,4.73,1.547,4.83c0.019,0.11-0.008,0.224-0.072,0.316
	C32.927,35.966,31.195,38.376,25.67,38.376"/>
<path fill="#FFFFFF" d="M25.416,28.104c-2.152,0-3.83-2.393-4.478-4.617c-0.068-0.232,0.065-0.476,0.298-0.543
	c0.233-0.068,0.476,0.065,0.543,0.297c0.564,1.933,2.029,3.986,3.637,3.986c2.07,0,3.784-3.269,3.886-5.39
	c0.011-0.241,0.216-0.428,0.458-0.417c0.242,0.012,0.429,0.217,0.417,0.459C30.059,24.358,28.097,28.104,25.416,28.104"/>
<path fill="#FFFFFF" d="M20.478,23.905c-0.188,0-0.355-0.119-0.416-0.299c-0.163-0.484-0.336-1.317-0.336-2.205
	c0-3.213,2.613-5.828,5.825-5.828c3.041,0,5.591,2.376,5.809,5.409c0.004,0.078-0.011,0.157-0.047,0.228
	c-0.601,1.196-3.127,1.518-3.628,1.571c-0.144,0.013-0.285-0.042-0.378-0.152c-0.095-0.11-0.128-0.259-0.091-0.399
	c0.002-0.003,0.092-0.349,0.148-0.989c-1.649,1.415-4.972,2.572-6.865,2.664C20.492,23.905,20.484,23.905,20.478,23.905
	 M25.551,16.451c-2.729,0-4.949,2.221-4.949,4.951c0,0.602,0.093,1.182,0.197,1.6c1.775-0.197,4.631-1.239,6.02-2.449
	c0.31-0.27,0.525-0.535,0.623-0.767c0.082-0.189,0.285-0.297,0.487-0.258c0.205,0.041,0.352,0.217,0.354,0.425
	c0.005,0.357-0.003,0.713-0.024,1.056c-0.02,0.324-0.05,0.597-0.079,0.816c0.913-0.163,1.966-0.491,2.291-0.917
	C30.222,18.397,28.087,16.451,25.551,16.451"/>
<path fill="#FFFFFF" d="M21.997,28.997c-1.254,0-5.667-0.416-6.942-6.129c-0.053-0.237,0.096-0.471,0.333-0.524
	c0.237-0.051,0.47,0.097,0.523,0.333c1.311,5.873,6.125,5.458,6.33,5.436c0.24-0.021,0.456,0.151,0.48,0.392
	c0.025,0.24-0.148,0.455-0.389,0.481C22.323,28.985,22.202,28.997,21.997,28.997"/>
<path fill="#FFFFFF" d="M30.914,29.214c-0.945,0-1.652-0.194-1.711-0.211c-0.231-0.066-0.367-0.31-0.301-0.542
	c0.065-0.232,0.308-0.368,0.541-0.302c0.022,0.006,2.41,0.656,4.064-0.598c1.104-0.837,1.664-2.348,1.664-4.491
	c0-0.242,0.195-0.438,0.438-0.438s0.439,0.196,0.439,0.438c0,2.436-0.679,4.183-2.017,5.194
	C33.031,29.021,31.855,29.214,30.914,29.214"/>
<path fill="#FFFFFF" d="M35.84,23.171c-0.014,0-0.027,0-0.041-0.001c-0.542-0.05-0.988-0.304-1.287-0.735
	c-0.915-1.323-0.227-3.96-0.144-4.256c0.064-0.234,0.304-0.371,0.538-0.307c0.233,0.064,0.369,0.306,0.307,0.538
	c-0.19,0.698-0.561,2.689,0.021,3.526c0.152,0.219,0.358,0.333,0.646,0.361c0.24,0.022,0.418,0.234,0.397,0.476
	C36.255,23,36.064,23.171,35.84,23.171"/>
<path fill="#FFFFFF" d="M35.835,22.735c-0.027,0-0.056-0.002-0.083-0.008c-0.238-0.044-0.394-0.274-0.349-0.512l0.693-3.666
	c0.045-0.237,0.273-0.395,0.512-0.349c0.238,0.044,0.395,0.274,0.35,0.511l-0.693,3.666C36.225,22.588,36.04,22.735,35.835,22.735"
	/>
<path fill="#FFFFFF" d="M36.461,23.128c-0.168,0-0.327-0.097-0.4-0.26c-0.1-0.22,0.001-0.48,0.221-0.578
	c0.508-0.227,1.095-1.86,1.332-2.893c0.054-0.236,0.29-0.383,0.525-0.329c0.236,0.054,0.383,0.29,0.328,0.526
	c-0.114,0.499-0.741,3.011-1.828,3.496C36.58,23.115,36.52,23.128,36.461,23.128"/>
<path fill="#FFFFFF" d="M36.001,23.174c-0.047,0-0.094-0.008-0.141-0.023c-0.139-0.046-0.344-0.091-0.581-0.142
	c-0.978-0.21-2.453-0.528-2.896-1.851c-0.077-0.229,0.048-0.478,0.277-0.554c0.229-0.077,0.479,0.046,0.555,0.275
	c0.284,0.849,1.42,1.093,2.249,1.272c0.264,0.057,0.492,0.105,0.679,0.169c0.229,0.077,0.352,0.327,0.274,0.555
	C36.355,23.059,36.184,23.174,36.001,23.174"/>
<path fill="#FFFFFF" d="M15.153,22.979h-0.028c-0.242-0.003-0.436-0.202-0.433-0.444c0.004-0.242,0.203-0.44,0.444-0.433
	c0.297,0.007,0.505-0.088,0.68-0.292c0.665-0.772,0.504-2.792,0.387-3.505c-0.039-0.239,0.122-0.465,0.361-0.504
	c0.239-0.039,0.463,0.122,0.503,0.36c0.05,0.303,0.462,3-0.586,4.219C16.146,22.773,15.687,22.979,15.153,22.979"/>
<path fill="#FFFFFF" d="M15.182,22.545c-0.226,0-0.417-0.173-0.437-0.401l-0.309-3.719c-0.02-0.241,0.158-0.453,0.4-0.473
	c0.244-0.019,0.453,0.16,0.473,0.401l0.31,3.717c0.02,0.241-0.159,0.453-0.401,0.474C15.206,22.545,15.194,22.545,15.182,22.545"/>
<path fill="#FFFFFF" d="M14.517,22.872c-0.074,0-0.15-0.02-0.219-0.059c-1.031-0.595-1.393-3.159-1.456-3.667
	c-0.029-0.24,0.142-0.459,0.382-0.489c0.242-0.028,0.459,0.142,0.489,0.382c0.129,1.052,0.543,2.738,1.024,3.014
	c0.208,0.122,0.281,0.391,0.16,0.6C14.816,22.793,14.668,22.872,14.517,22.872"/>
<path fill="#FFFFFF" d="M14.969,22.965c-0.201,0-0.38-0.138-0.427-0.341c-0.054-0.236,0.094-0.472,0.33-0.524
	c0.192-0.044,0.424-0.069,0.691-0.098c0.844-0.091,2-0.216,2.37-1.03c0.1-0.22,0.359-0.318,0.581-0.218
	c0.221,0.1,0.317,0.359,0.217,0.58c-0.577,1.27-2.079,1.432-3.073,1.539c-0.24,0.027-0.448,0.049-0.592,0.081
	C15.034,22.961,15.001,22.965,14.969,22.965"/>
<rect x="8.031" y="12.26" fill="#FFFFFF" width="35.257" height="1.218"/>
<rect x="12.616" y="10.915" transform="matrix(0.4998 0.8661 -0.8661 0.4998 20.967 -2.7105)" fill="#FFFFFF" width="0.428" height="11.767"/>
<rect x="9.82" y="21.311" transform="matrix(0.5003 0.8658 -0.8658 0.5003 25.7544 3.2815)" fill="#FFFFFF" width="0.427" height="5.287"/>
<rect x="10.876" y="23.825" transform="matrix(0.5003 0.8658 -0.8658 0.5003 29.5143 4.2332)" fill="#FFFFFF" width="0.427" height="7.725"/>
<rect x="12.254" y="26.929" transform="matrix(0.5003 0.8658 -0.8658 0.5003 34.268 5.3858)" fill="#FFFFFF" width="0.427" height="10.907"/>
<rect x="40.19" y="13.726" transform="matrix(0.4969 0.8678 -0.8678 0.4969 34.4328 -26.8854)" fill="#FFFFFF" width="0.426" height="5.055"/>
<rect x="40.19" y="19.311" transform="matrix(0.4974 0.8675 -0.8675 0.4974 39.2541 -24.0744)" fill="#FFFFFF" width="0.426" height="5.056"/>
<rect x="37.414" y="22.413" transform="matrix(0.4969 0.8678 -0.8678 0.4969 43.0515 -18.67)" fill="#FFFFFF" width="0.426" height="10.762"/>
<rect x="38.13" y="28.045" transform="matrix(0.4993 0.8664 -0.8664 0.4993 47.4418 -16.9007)" fill="#FFFFFF" width="0.428" height="9.108"/>
<rect x="38.511" y="33.624" transform="matrix(0.5013 0.8653 -0.8653 0.5013 51.9665 -14.6863)" fill="#FFFFFF" width="0.427" height="8.232"/>
<rect x="32.148" y="13.046" transform="matrix(0.4969 0.8678 -0.8678 0.4969 29.7966 -20.2479)" fill="#FFFFFF" width="0.426" height="5.056"/>
<rect x="12.254" y="31.29" transform="matrix(0.5003 0.8658 -0.8658 0.5003 38.0446 7.5653)" fill="#FFFFFF" width="0.427" height="10.908"/>
<rect x="8.031" y="40.472" fill="#FFFFFF" width="35.257" height="1.218"/>
</svg>
