<?xml version="1.0" encoding="utf-8"?>
<!-- Generator: Adobe Illustrator 15.0.0, SVG Export Plug-In  -->
<!DOCTYPE svg PUBLIC "-//W3C//DTD SVG 1.1//EN" "http://www.w3.org/Graphics/SVG/1.1/DTD/svg11.dtd" [
	<!ENTITY ns_flows "http://ns.adobe.com/Flows/1.0/">
]>
<svg version="1.1"
	 xmlns="http://www.w3.org/2000/svg" xmlns:xlink="http://www.w3.org/1999/xlink" xmlns:a="http://ns.adobe.com/AdobeSVGViewerExtensions/3.0/"
	 x="0px" y="0px" width="55px" height="55px" viewBox="-1.841 -0.525 55 55" enable-background="new -1.841 -0.525 55 55"
	 xml:space="preserve">
<defs>
</defs>
<path fill="#FFFFFF" d="M47.433,18.447h3.886C47.934,8.287,38.681,0.789,27.595,0v3.666C36.645,4.411,44.242,10.329,47.433,18.447"
	/>
<path fill="#FFFFFF" d="M3.886,18.447c3.19-8.118,10.788-14.037,19.839-14.781V0C12.637,0.789,3.385,8.287,0,18.447H3.886z"/>
<path fill="#FFFFFF" d="M47.433,35.502c-3.19,8.119-10.788,14.037-19.838,14.782v3.665c11.086-0.788,20.339-8.288,23.724-18.447
	H47.433z"/>
<path fill="#FFFFFF" d="M3.886,35.502H0c3.385,10.159,12.637,17.659,23.725,18.447v-3.665C14.674,49.539,7.076,43.621,3.886,35.502"
	/>
<path fill="#FFFFFF" d="M39.438,26.665H10.684c-0.172,0-0.313-0.141-0.313-0.314V16.304c0-0.173,0.141-0.313,0.313-0.313h24.061
	c0.084,0,0.163,0.033,0.222,0.091l4.692,4.693c0.06,0.059,0.093,0.138,0.093,0.221v5.354C39.751,26.524,39.611,26.665,39.438,26.665
	 M10.999,26.036h28.125v-4.909l-4.509-4.509H10.999V26.036z"/>
<path fill="#FFFFFF" d="M39.438,37.959H10.685c-0.174,0-0.314-0.141-0.314-0.313v-7.372c0-0.173,0.14-0.313,0.314-0.313h28.753
	c0.174,0,0.313,0.141,0.313,0.313v7.372C39.751,37.818,39.611,37.959,39.438,37.959 M10.999,37.331h28.125v-6.743H10.999V37.331z"/>
<path fill="#FFFFFF" d="M46.748,33.012h-7.313c-0.172,0-0.313-0.141-0.313-0.313v-2.11H10.998v2.11c0,0.173-0.14,0.313-0.313,0.313
	H4.569c-0.172,0-0.313-0.141-0.313-0.313v-9.737c0-0.173,0.141-0.314,0.313-0.314h6.115c0.174,0,0.313,0.141,0.313,0.314v3.075
	h28.125v-3.075c0-0.173,0.141-0.314,0.313-0.314h7.313c0.174,0,0.314,0.141,0.314,0.314v9.737
	C47.063,32.871,46.922,33.012,46.748,33.012 M39.751,32.385h6.685v-9.11h-6.685v3.076c0,0.173-0.14,0.314-0.315,0.314H10.685
	c-0.173,0-0.314-0.141-0.314-0.314v-3.076H4.884v9.11h5.486v-2.111c0-0.173,0.141-0.313,0.314-0.313h28.751
	c0.176,0,0.315,0.141,0.315,0.313V32.385z"/>
<path fill="#FFFFFF" d="M29.53,32.434H18.919c-0.174,0-0.314-0.141-0.314-0.314c0-0.173,0.14-0.313,0.314-0.313H29.53
	c0.174,0,0.314,0.141,0.314,0.313C29.845,32.293,29.704,32.434,29.53,32.434"/>
<path fill="#FFFFFF" d="M29.53,34.018H18.919c-0.174,0-0.314-0.141-0.314-0.314c0-0.173,0.14-0.314,0.314-0.314H29.53
	c0.174,0,0.314,0.142,0.314,0.314C29.845,33.877,29.704,34.018,29.53,34.018"/>
<path fill="#FFFFFF" d="M29.53,35.707H18.919c-0.174,0-0.314-0.141-0.314-0.314s0.14-0.313,0.314-0.313H29.53
	c0.174,0,0.314,0.14,0.314,0.313S29.704,35.707,29.53,35.707"/>
<path fill="#FFFFFF" d="M39.438,21.311h-4.693c-0.174,0-0.314-0.14-0.314-0.313v-4.693c0-0.126,0.077-0.241,0.194-0.29
	c0.117-0.048,0.253-0.022,0.342,0.067l4.692,4.693c0.091,0.089,0.117,0.225,0.068,0.342C39.678,21.235,39.564,21.311,39.438,21.311
	 M35.059,20.684h3.62l-3.62-3.622V20.684z"/>
<path fill="#FFFFFF" d="M44.837,25.158c0-0.451-0.367-0.817-0.816-0.817c-0.45,0-0.816,0.366-0.816,0.817
	c0,0.451,0.366,0.815,0.816,0.815C44.47,25.973,44.837,25.609,44.837,25.158"/>
<path fill="#FFFFFF" d="M44.837,27.481c0-0.452-0.367-0.816-0.816-0.816c-0.45,0-0.816,0.365-0.816,0.816
	c0,0.45,0.366,0.815,0.816,0.815C44.47,28.297,44.837,27.932,44.837,27.481"/>
<path fill="#FFFFFF" d="M44.837,29.96c0-0.451-0.367-0.816-0.816-0.816c-0.45,0-0.816,0.365-0.816,0.816s0.366,0.815,0.816,0.815
	C44.47,30.775,44.837,30.411,44.837,29.96"/>
</svg>
